<svg
   xmlns="http://www.w3.org/2000/svg"
   viewBox="0 0 230.00502 230.00494">
  <path fill="#1144dd" d="M0 0h230.00502v230.00494H0z"/>
  <g
     id="g4164"
     transform="matrix(0.98678812,0,0,1.6996502,-60.060632,-1183.1419)">
    <g
       id="g4381"
       transform="translate(-15.00011,0)">
      <path
         id="path4181"
         d="m 277.95789,764.28192 c 11.77978,2.74658 20.05004,6.073 24.81079,9.97925 6.83593,5.5542 1.92014,11.99873 1.92014,20.84883 0,9.33838 -4.51127,13.52379 -12.01859,19.62731 -9.21632,7.38526 -16.80766,14.06397 -34.38328,14.36088 l -59.79684,1.01015 0,-3.38745 c 5.73731,0 9.61304,-0.5188 11.6272,-1.5564 2.07519,-1.09863 3.50952,-2.50244 4.30298,-4.21143 0.85449,-1.70898 1.28174,-5.9204 1.28174,-12.63427 l 0,-80.56641 c 0,-6.71387 -0.42725,-10.92529 -1.28174,-12.63428 -0.79346,-1.77002 -2.22779,-3.17383 -4.30298,-4.21142 -2.07519,-1.0376 -5.95093,-1.5564 -11.6272,-1.5564 l 0,-3.38745 59.50928,0 c 14.22119,0 24.29199,1.28174 30.2124,3.84521 5.92041,2.50245 7.37531,6.64377 10.79328,11.70968 3.41797,5.00489 -5.04328,9.98832 -5.04328,15.66459 0,5.98145 -8.4802,8.29157 -12.81369,12.99127 -4.3335,4.63868 7.73508,11.36176 -3.19021,14.10834 z M 244.63269,761.81 c 8.66699,0 15.04517,-0.97656 19.13452,-2.92969 4.15039,-1.95313 7.32422,-4.69971 9.52149,-8.23975 2.19726,-3.54003 3.29589,-8.05663 3.29589,-13.5498 0,-5.49317 -1.09863,-9.97925 -3.29589,-13.45825 -2.13623,-3.54004 -5.21851,-6.22559 -9.24683,-8.05664 -4.02832,-1.83106 -10.49805,-2.71607 -19.40918,-2.65503 z m 0,7.14111 0,39.82544 -0.0915,4.57764 c 0,3.29589 0.82397,5.79833 2.47192,7.50732 1.70899,1.64795 4.21143,2.47193 7.50733,2.47193 4.88281,0 9.49516,1.07845 13.58452,-1.05778 1.89504,2.08654 12.37497,-4.33042 14.57224,-8.41977 2.19727,-4.15039 3.04336,-13.80932 3.04336,-18.87524 0,-5.79833 -4.30297,-10.52085 -6.98852,-15.09849 -2.68555,-4.63867 -8.08992,-7.32885 -12.78963,-9.1599 -4.69971,-1.83105 -10.94215,-11.53709 -21.30941,-6.94818 z"
         style="fill:#ffffff;fill-opacity:1;stroke:#000000;stroke-width:1px;stroke-linecap:butt;stroke-linejoin:miter;stroke-opacity:1" />
      <path
         id="path4429"
         style="fill:#000000;fill-opacity:1;stroke:#ffffff;stroke-width:0.99550331;stroke-opacity:1"
         d="m 244.633,763.1269 0,-3.3071 c 8.01885,-2.07875 13.77123,-4.00002 16.86623,-5.76381 3.09499,-1.82678 5.76794,-4.56696 8.01884,-8.22052 2.25091,-3.71657 3.37635,-7.46463 3.37635,-11.24417 0,-5.22838 -2.14539,-9.70085 -6.43616,-13.4174 -4.22045,-3.77955 -9.49601,-5.66932 -15.82668,-5.66932 -9.84769,0 -18.21824,4.66143 -25.11164,13.98432 l -3.9039,-1.22834 c 5.06453,-10.51976 11.53588,-18.42532 19.41404,-23.71669 7.94849,-5.29136 16.77626,-7.93706 26.48328,-7.93706 9.91804,0 18.07756,2.70868 24.47856,8.12604 6.47135,5.41735 9.70703,11.74811 9.70703,18.99225 0,4.72444 -1.51233,9.29139 -4.53698,13.70087 -2.95431,4.34648 -7.63196,8.18902 -14.03297,11.52763 8.22986,3.59057 14.49019,8.03154 18.78097,13.32291 4.36113,5.22838 6.54168,11.8111 6.54168,19.74815 0,13.35442 -4.65862,24.97711 -16.2487,34.11046 -10.76212,9.32289 -22.81804,13.73179 -43.36505,13.98433 -12.0977,0.14869 -20.92637,-1.79529 -26.48329,-5.38586 -4.00942,-2.5197 -7.14797,-6.25153 -6.72842,-9.73234 0.38719,-3.21232 1.87491,-5.35436 4.19616,-7.37013 2.32123,-2.07876 4.99419,-3.11813 8.01885,-3.11813 2.32123,0 4.5018,0.44094 6.54168,1.32285 1.12545,0.50394 5.0997,3.2756 11.92276,8.31501 6.89338,4.97641 13.32956,7.46462 19.30853,7.46462 5.20521,0 9.67184,-1.82679 13.39989,-5.48035 3.72807,-3.71656 5.5921,-8.40951 5.5921,-14.07883 0,-8.62998 -3.37636,-16.56703 -10.12907,-23.81118 -6.7527,-7.30713 -16.83105,-12.34653 -29.84409,-15.11821 z"/>
    </g>
    <g
       id="text4335"
       transform="translate(-334.28571,-158.57143)">
      <path
         style="fill:#ffffff;fill-opacity:1;stroke:#000000;stroke-width:1px;stroke-linecap:butt;stroke-linejoin:miter;stroke-opacity:1"
         id="path4351"
         d="m 503.77637,926.0813 c 8.60595,1.83105 15.04516,4.76074 19.31762,8.78906 5.92041,5.61523 8.88062,12.48169 8.88062,20.59937 0,6.16455 -1.95313,12.08496 -5.85938,17.76123 -3.90625,5.61523 -9.27734,9.73511 -16.11328,12.35962 -6.7749,2.56347 -17.15089,3.9314 -31.12793,3.91462 l -57.83802,-0.0694 0,-3.31859 3.91346,0 c 6.24222,0 8.96442,1.62928 12.61168,-5.01275 1.40381,-2.13623 2.19705,-6.68395 2.10571,-13.64136 L 438.614,887.26294 c -0.10095,-7.68977 1.77002,-12.54273 0,-14.55689 -2.38037,-2.68555 -8.96483,-4.02832 -13.66454,-4.02832 l -4.66919,0 0,-3.38745 53.64991,0 c 10.00976,0 10.17696,0.28621 24.07836,0.0689 9.15528,2.19727 16.14381,8.23187 20.96558,13.8471 4.82178,5.5542 7.23267,11.96289 7.23267,19.22607 0,6.22559 -1.89209,11.8103 -5.67627,16.75415 -3.78418,4.88281 -9.3689,8.51441 -16.75415,10.89478 z m -47.97364,-4.94385 c 2.25831,0.42725 3.43282,0.76294 6.30147,1.00708 2.92969,0.18311 7.523,0.27466 11.002,0.27466 6.32492,0.0417 7.33081,-0.45798 12.97038,-1.61722 4.9688,-1.97632 8.01279,-5.48542 9.63147,-10.47512 0,0 1.31829,-9.73932 0.67595,-15.85365 -2.2639,-21.54973 -12.74923,-23.04888 -24.10177,-23.04888 -6.10352,0 -11.59669,0.67139 -16.4795,2.01416 z m 0,59.32617 c 1.65051,3.79452 9.08527,6.15865 17.87627,5.65358 11.04737,-0.88389 22.55953,-5.65357 28.35787,-10.59742 5.79833,-5.00489 8.6975,-11.16944 8.6975,-18.49366 0,-4.82177 -1.31225,-9.46044 -3.93676,-13.91601 -2.62451,-4.45557 -6.89698,-7.96509 -12.81739,-10.52857 -5.92041,-2.56347 -12.36074,-4.85536 -21.08877,-4.85536 -3.78418,0 -8.408,0.31354 -11.09355,0.43564 -2.68555,0.12207 -4.34722,1.09331 -5.99517,1.39848 z" />
      <path
         style="fill:#000000;fill-opacity:1;stroke:#ffffff;stroke-opacity:1"
         id="path4354"
         d="m 498.48999,865.3592 1.37329,29.11413 -3.47928,-1.3e-4 c -0.67139,-5.12695 -1.58663,-8.78893 -2.7463,-10.9862 -1.89209,-3.54004 -4.42505,-6.13403 -7.59888,-7.78198 -3.11279,-1.70899 -7.23267,-2.56348 -12.35962,-2.56348 l -17.48657,0 0,94.84863 c 0,7.6294 0.82397,12.39014 2.47192,14.28223 2.31933,2.56347 5.88989,3.84521 10.71167,3.84521 l 4.30278,-4.1e-4 2e-4,3.388 -52.64282,-1.3e-4 -3.8e-4,-3.38787 4.39491,4.1e-4 c 5.24902,4.8e-4 8.97216,-1.58691 11.16943,-4.76074 1.34277,-1.95312 2.01416,-6.40869 2.01416,-13.3667 l -5e-4,-94.84897 -14.92259,3.4e-4 c -5.79834,1.3e-4 -9.91821,0.42725 -12.35962,1.28174 -3.17383,1.15967 -5.8899,3.38745 -8.1482,6.68335 -2.2583,3.2959 -3.60107,7.75147 -4.02832,13.3667 l -3.479,0 1.46484,-29.11377 z" />
    </g>
  </g>
</svg>
